<svg aria-hidden="true" focusable="false" data-prefix="fas" data-icon="robot" class="svg-inline--fa fa-robot fa-w-20" role="img" xmlns="http://www.w3.org/2000/svg" viewBox="0 0 640 512">
  <path
     style="fill:currentColor"
     id="path2"
     d="M 32,224 H 64 V 416 H 32 C 14.318105,416.02122 -0.02122329,401.6819 0,384 V 256 c -0.02122329,-17.6819 14.318105,-32.02122 32,-32 z m 512,-48 v 272 c -0.0349,35.33177 -28.66823,63.96512 -64,64 H 160 C 124.66823,511.96512 96.034883,483.33177 96,448 V 176 C 95.98563,131.81127 131.81127,95.985632 176,96 H 288 V 32 C 288,14.326876 302.32689,1.389176e-5 320,1.389176e-5 337.67311,1.389176e-5 352,14.326876 352,32 v 64 h 112 c 44.18873,-0.01437 80.01437,35.81127 80,80 z m 96,80 v 128 c 0.0212,17.6819 -14.3181,32.02122 -32,32 H 576 V 224 h 32 c 17.6819,-0.0212 32.02122,14.3181 32,32 z" />
  <ellipse
     ry="21.694916"
     rx="54.237289"
     cy="75.932243"
     cx="436.06775"
     id="path3730" />
  <ellipse
     ry="21.694916"
     rx="54.237289"
     cy="75.93222"
     cx="202.40672"
     id="path3730-6" />
</svg>
